<?xml version="1.0" standalone="no"?>
<!DOCTYPE svg PUBLIC "-//W3C//DTD SVG 20010904//EN"
 "http://www.w3.org/TR/2001/REC-SVG-20010904/DTD/svg10.dtd">
<svg version="1.0" xmlns="http://www.w3.org/2000/svg"
 width="600.000000pt" height="338.000000pt" viewBox="0 0 600.000000 338.000000"
 preserveAspectRatio="xMidYMid meet">

<g transform="translate(0.000000,338.000000) scale(0.100000,-0.100000)"
fill="#000000" stroke="none">
<path d="M2210 3366 c-19 -8 -51 -19 -70 -26 -43 -16 -109 -61 -110 -75 0 -16
-34 -42 -49 -37 -16 5 -63 -38 -57 -54 3 -7 -2 -20 -9 -31 -13 -17 -15 -17
-45 -1 -33 19 -42 6 -10 -14 26 -16 26 -32 0 -25 -11 3 -23 -1 -28 -7 -4 -7
-25 -16 -47 -19 -31 -5 -50 -17 -81 -51 -40 -43 -63 -103 -49 -126 3 -6 -1 -7
-9 -4 -11 4 -16 0 -16 -10 0 -10 -7 -31 -16 -48 -9 -16 -11 -27 -5 -24 19 12
12 -24 -9 -41 -11 -9 -22 -36 -26 -60 -3 -23 -12 -47 -19 -53 -21 -17 -12
-166 14 -234 11 -31 21 -77 21 -102 0 -38 -4 -46 -24 -54 -20 -7 -24 -18 -30
-73 -4 -36 -13 -85 -20 -109 -7 -23 -10 -54 -6 -68 4 -14 3 -35 -2 -48 -4 -13
-8 -46 -8 -74 0 -27 -7 -75 -16 -105 -9 -30 -13 -64 -10 -75 2 -12 -4 -89 -14
-172 -11 -83 -26 -234 -35 -336 -21 -249 -44 -470 -50 -480 -9 -14 -237 -137
-495 -265 -235 -118 -260 -132 -314 -189 -86 -90 -134 -166 -161 -253 l-6 -23
2795 0 2795 0 -6 113 c-2 61 -20 252 -39 424 -19 171 -34 342 -34 380 0 37 -5
86 -10 108 -5 22 -12 103 -14 180 -19 553 -29 921 -27 978 2 56 -7 72 -56 88
-33 11 -37 10 -57 -15 -29 -37 -89 -46 -119 -19 -35 32 -50 33 -169 12 -100
-18 -140 -20 -343 -15 -126 3 -264 10 -305 16 -129 17 -780 48 -1174 55 -136
2 -251 6 -253 9 -8 7 -9 296 -2 308 3 5 10 1 14 -9 7 -15 10 -11 14 17 5 26 0
49 -20 90 -31 63 -27 87 7 45 30 -38 37 -29 18 24 -8 23 -12 47 -8 53 3 5 -8
24 -24 41 -17 18 -38 48 -47 67 -26 57 -43 84 -61 97 -9 6 -13 16 -9 22 3 6 1
11 -4 11 -6 0 -19 8 -28 19 -108 114 -128 131 -149 131 -13 0 -40 11 -60 25
-20 14 -44 25 -53 25 -10 0 -21 4 -27 9 -5 6 -45 13 -88 16 -44 4 -91 11 -104
16 -14 5 -51 7 -82 3 -54 -6 -58 -5 -65 17 -6 19 -8 21 -12 7 -2 -9 -13 -20
-23 -23 -25 -8 -111 2 -124 15 -13 13 -29 13 -21 0 8 -13 10 -14 -89 15 -47
14 -87 25 -89 25 -1 -1 -18 -7 -37 -14z m-250 -176 c0 -5 -7 -10 -16 -10 -8 0
-12 5 -9 10 3 6 10 10 16 10 5 0 9 -4 9 -10z m755 -313 c7 -15 30 -28 75 -42
49 -16 76 -32 109 -65 25 -25 42 -37 38 -27 -7 18 3 23 18 8 6 -5 28 -12 50
-16 30 -5 36 -4 25 4 -8 6 -23 11 -32 11 -19 0 -58 34 -58 49 0 6 12 6 30 1
17 -5 34 -10 38 -11 25 -6 40 -14 59 -32 12 -11 29 -17 37 -14 9 4 16 2 16 -3
0 -5 12 -16 28 -24 15 -8 38 -32 52 -55 14 -22 28 -41 33 -41 4 0 7 -5 7 -11
0 -5 -4 -7 -10 -4 -14 9 -12 -4 3 -20 39 -42 52 -65 58 -111 4 -29 10 -61 13
-71 8 -26 -29 -43 -92 -43 -33 0 -64 -9 -107 -31 -60 -31 -60 -31 -62 -78 -1
-25 3 -61 9 -79 10 -32 12 -33 45 -27 30 5 35 4 29 -10 -4 -12 4 -20 31 -31
34 -15 58 -15 151 -2 21 3 26 -4 43 -57 14 -42 20 -87 19 -149 0 -76 -4 -98
-27 -147 -24 -50 -30 -56 -43 -45 -20 18 -82 47 -87 42 -3 -2 0 -13 6 -24 15
-28 14 -31 -9 -27 -24 5 -25 -4 -5 -31 13 -16 14 -16 9 -1 -3 9 -3 17 1 17 14
0 45 -21 45 -32 0 -7 -4 -7 -14 1 -11 9 -15 7 -19 -9 -3 -11 -2 -18 3 -15 4 3
10 -4 13 -14 4 -16 1 -18 -17 -12 -11 5 -23 17 -25 27 -2 11 -7 21 -11 24 -3
3 -12 14 -19 25 -12 19 -12 19 -8 -2 7 -32 1 -29 -17 9 -19 37 -20 46 -4 30
19 -19 30 -14 18 7 -16 31 -12 63 11 88 20 20 20 23 5 29 -9 4 -24 0 -34 -9
-9 -8 -40 -18 -68 -22 -47 -6 -54 -4 -79 21 -25 25 -31 26 -96 22 l-70 -5 -23
34 c-31 45 -43 25 -16 -27 13 -26 18 -49 14 -65 -7 -27 12 -36 22 -10 7 17 34
21 34 4 0 -5 -5 -7 -10 -4 -6 3 -13 -2 -17 -11 -4 -10 -2 -19 5 -22 7 -2 10
-8 6 -13 -3 -5 -2 -14 2 -20 4 -8 9 -7 14 2 5 7 17 13 28 14 15 1 19 -5 18
-26 -1 -15 -4 -25 -8 -22 -5 2 -8 -5 -8 -16 0 -30 -19 -35 -26 -6 -8 31 -15
31 -42 0 -29 -34 -39 -31 -34 8 3 17 7 26 10 19 3 -10 7 -10 18 -1 17 14 18
36 2 41 -17 6 -44 -30 -53 -70 -3 -18 -11 -29 -16 -26 -6 3 -8 13 -4 21 4 13
3 13 -8 4 -12 -9 -16 -5 -21 20 -4 20 -10 28 -18 23 -10 -5 -10 -4 -1 6 9 10
15 10 26 1 18 -14 40 9 31 33 -7 18 -20 21 -29 6 -11 -17 -25 -11 -25 10 0 11
-7 23 -15 26 -8 4 -15 15 -15 27 0 19 -1 19 -19 3 -19 -17 -44 -90 -55 -156
-5 -34 -5 -34 12 -15 9 11 26 21 36 23 18 3 18 2 2 -13 -9 -9 -13 -21 -10 -27
4 -6 9 -5 15 3 12 20 16 8 8 -26 -4 -19 -7 -23 -8 -10 -1 18 -2 18 -17 -3 -8
-12 -21 -22 -29 -22 -8 0 -17 -5 -21 -12 -5 -8 0 -9 14 -6 25 7 30 -7 7 -16
-21 -7 -48 -74 -40 -95 6 -14 7 -14 16 2 13 21 33 23 25 1 -4 -11 -2 -15 8
-11 8 3 17 -1 20 -9 7 -18 24 -18 42 1 9 8 22 15 30 15 10 0 9 -5 -6 -20 -11
-11 -20 -24 -20 -30 0 -12 27 -13 34 -1 9 13 57 20 53 7 -5 -14 35 -35 48 -26
6 4 21 11 34 15 l24 7 -21 -23 c-27 -28 -20 -39 8 -14 21 19 29 8 8 -13 -6 -6
-8 -15 -4 -19 4 -5 13 0 21 10 14 20 45 13 45 -10 0 -8 4 -12 8 -9 10 6 12 -4
16 -76 1 -29 -1 -62 -5 -73 -6 -14 -8 -16 -8 -4 -1 9 -10 24 -21 34 -18 17
-20 17 -14 2 5 -13 2 -16 -10 -11 -11 4 -16 1 -16 -11 0 -11 5 -15 15 -11 14
5 20 -6 15 -29 -1 -5 7 -15 16 -22 10 -7 16 -14 13 -14 -2 -1 -16 -3 -30 -4
-23 -3 -26 -1 -21 18 5 20 4 21 -12 8 -15 -13 -15 -15 -1 -31 11 -12 13 -20 6
-25 -14 -8 -31 2 -31 20 0 19 -40 6 -41 -14 -1 -9 -2 -23 -3 -31 -2 -26 -17
-42 -29 -32 -14 12 -97 20 -97 11 0 -4 6 -10 13 -12 6 -3 -6 -6 -28 -6 -26 0
-35 2 -26 8 8 5 9 11 3 15 -6 3 -13 2 -17 -4 -3 -5 -15 -10 -26 -10 -15 0 -19
7 -19 35 0 19 -4 35 -10 35 -5 0 -10 -5 -10 -12 0 -6 -9 -3 -20 7 -15 14 -20
15 -20 4 -1 -10 -4 -9 -11 4 -5 9 -17 17 -26 17 -14 0 -14 2 1 19 10 11 16 26
14 33 -3 8 -9 5 -17 -10 -14 -27 -35 -29 -28 -2 3 10 1 20 -4 22 -4 2 -9 18
-11 36 -1 17 -6 32 -10 32 -4 0 -8 11 -8 25 0 17 7 29 23 35 12 5 19 9 15 9
-12 1 25 41 38 41 31 0 63 130 42 166 -3 5 -8 32 -12 59 -5 38 -4 46 4 32 19
-30 35 -2 65 111 4 14 0 31 -12 46 -16 20 -20 21 -32 8 -13 -13 -16 -13 -27 3
-7 10 -11 22 -8 26 8 13 -20 11 -34 -3 -8 -8 -15 -8 -24 0 -8 7 -19 7 -28 2
-18 -11 -30 -4 -30 20 0 10 -9 22 -20 25 -11 4 -18 11 -15 16 4 5 1 9 -4 9 -6
0 -11 6 -11 14 0 18 -29 14 -40 -4 -7 -12 -10 -11 -16 3 -3 9 -11 17 -16 17
-6 0 -5 -7 2 -15 20 -24 -3 -43 -25 -21 -9 9 -13 16 -9 16 3 0 1 7 -6 15 -7 8
-9 26 -6 42 6 25 3 28 -19 29 -18 2 -25 -3 -25 -17 0 -15 -5 -18 -24 -13 -17
4 -25 1 -30 -12 -6 -15 -10 -12 -28 17 -22 35 -34 114 -18 124 5 3 7 51 5 106
-4 93 -3 105 20 145 14 25 25 51 25 59 0 8 5 15 10 15 6 0 10 12 10 26 0 26
34 72 147 201 98 112 113 126 119 120 3 -3 -3 -14 -15 -26 -13 -13 -16 -21 -8
-24 13 -4 57 49 57 68 0 6 21 28 46 49 40 33 45 43 40 67 -6 30 6 45 27 32 6
-4 17 -8 22 -8 6 0 10 -31 10 -73 0 -39 3 -72 7 -72 11 0 21 88 15 133 l-6 42
43 -3 c32 -3 44 -9 51 -25z m-180 -26 c3 -5 1 -12 -5 -16 -5 -3 -10 1 -10 9 0
18 6 21 15 7z m745 -581 c0 -5 -4 -10 -10 -10 -5 0 -10 5 -10 10 0 6 5 10 10
10 6 0 10 -4 10 -10z m-47 -37 c-7 -2 -19 -2 -25 0 -7 3 -2 5 12 5 14 0 19 -2
13 -5z m-123 -58 c0 -8 -7 -15 -15 -15 -26 0 -18 20 13 29 1 1 2 -6 2 -14z
m126 -32 c-11 -11 -17 4 -9 23 7 18 8 18 11 1 2 -10 1 -21 -2 -24z m-1441 -87
c0 -10 9 -22 20 -26 19 -7 18 -8 -7 -20 -25 -12 -28 -18 -28 -63 0 -48 1 -49
18 -34 25 23 35 21 27 -4 -9 -29 2 -69 20 -69 8 0 15 -7 15 -15 0 -8 5 -15 10
-15 7 0 9 -13 5 -33 -4 -21 0 -49 11 -76 l17 -43 -26 -25 c-25 -25 -27 -26
-51 -10 -25 17 -47 51 -60 94 -6 17 -3 20 11 17 12 -3 22 4 30 22 13 29 8 48
-6 25 -6 -10 -13 -10 -29 -2 -26 14 -72 69 -72 86 0 7 -6 18 -14 24 -22 19
-53 158 -38 173 9 9 12 5 12 -21 0 -19 4 -30 10 -26 6 4 8 11 5 16 -4 5 0 9 9
9 8 0 16 -5 18 -12 3 -7 13 2 24 20 14 25 25 32 44 30 17 -2 25 -9 25 -22z
m150 -256 c-4 -12 -9 -19 -12 -17 -3 3 -2 15 2 27 4 12 9 19 12 17 3 -3 2 -15
-2 -27z m415 9 c0 -5 -4 -9 -10 -9 -5 0 -10 7 -10 16 0 8 5 12 10 9 6 -3 10
-10 10 -16z m1656 -92 c23 -20 28 -34 33 -93 5 -61 8 -69 26 -67 133 17 139
16 172 -11 41 -35 52 -85 29 -132 -14 -30 -20 -34 -48 -32 -45 2 -159 -24
-165 -39 -2 -6 1 -21 7 -33 l12 -22 23 22 c17 16 29 20 42 15 10 -5 25 -9 33
-9 8 -1 15 -10 15 -21 0 -13 6 -19 18 -17 11 2 17 -4 17 -16 0 -33 47 -105 94
-145 40 -33 46 -43 46 -76 0 -21 12 -64 26 -96 30 -65 31 -145 1 -204 -20 -40
-12 -56 33 -65 17 -3 29 -11 28 -17 -2 -6 6 -13 17 -15 41 -6 144 -146 145
-196 0 -18 -92 -105 -128 -119 -43 -17 -64 41 -26 72 17 14 17 39 0 61 -10 13
-22 16 -49 11 -32 -5 -38 -2 -45 17 -7 19 -9 20 -21 6 -19 -22 -119 -11 -145
16 -24 26 -16 32 20 13 16 -8 35 -15 42 -15 18 0 14 21 -5 26 -10 3 -28 19
-40 36 -17 24 -20 36 -12 50 6 10 18 17 27 16 13 -2 16 3 14 27 -2 17 -5 32
-7 33 -6 7 -116 -19 -143 -34 -15 -8 -33 -14 -41 -14 -8 0 -60 -23 -115 -50
-56 -28 -124 -54 -153 -59 -45 -7 -66 -17 -118 -55 -21 -16 -45 1 -45 32 0 31
18 51 92 100 87 59 96 77 46 90 -57 14 -43 55 38 109 58 38 80 44 187 44 l67
1 0 44 0 44 53 0 c57 0 100 21 82 39 -6 6 -35 13 -65 16 -51 6 -59 4 -110 -30
-30 -21 -73 -46 -95 -57 -22 -12 -42 -24 -45 -28 -7 -12 -131 -52 -144 -47 -6
2 -24 -3 -41 -13 -22 -12 -31 -26 -35 -51 -7 -48 -33 -49 -75 -4 -29 30 -38
34 -54 25 -27 -14 -31 -13 -31 9 0 24 -17 36 -33 23 -7 -5 -35 -13 -63 -17
-46 -6 -54 -4 -82 20 -38 32 -43 79 -12 118 30 38 72 46 178 34 79 -9 96 -8
138 8 64 24 120 77 155 147 16 32 33 58 37 58 4 0 23 -18 41 -40 35 -42 51
-50 51 -24 0 8 4 13 9 10 5 -3 15 2 22 11 12 15 12 16 -4 10 -11 -4 -21 0 -29
13 -7 11 -18 20 -25 20 -19 0 -16 51 5 66 14 11 14 13 2 13 -8 1 -26 -8 -40
-19 -34 -27 -81 -26 -107 3 -46 50 -37 101 24 138 34 21 142 119 131 119 -2 0
-25 -7 -50 -15 -32 -11 -64 -35 -107 -80 -68 -72 -98 -81 -138 -43 -35 33 -28
65 37 165 l59 92 93 45 c136 64 180 71 224 33z m-1076 -27 c0 -5 -2 -10 -4
-10 -3 0 -8 5 -11 10 -3 6 -1 10 4 10 6 0 11 -4 11 -10z m-245 -39 c-3 -6 -11
-11 -17 -11 -6 0 -6 6 2 15 14 17 26 13 15 -4z m235 5 c0 -3 -4 -8 -10 -11 -5
-3 -10 -1 -10 4 0 6 5 11 10 11 6 0 10 -2 10 -4z m374 -58 c1 -18 -3 -39 -10
-45 -17 -17 -20 -16 -20 7 0 11 4 20 8 20 4 0 8 14 8 32 0 40 11 30 14 -14z
m-599 14 c-3 -3 -11 0 -18 7 -9 10 -8 11 6 5 10 -3 15 -9 12 -12z m227 -75
c21 0 41 -4 44 -8 3 -5 18 -9 35 -9 19 0 29 -5 29 -15 0 -12 -14 -15 -65 -15
-78 0 -138 21 -129 45 4 11 13 14 27 9 12 -4 38 -7 59 -7z m398 4 c0 -6 -4
-13 -10 -16 -5 -3 -10 1 -10 9 0 9 5 16 10 16 6 0 10 -4 10 -9z m-813 -53 c-3
-8 -6 -5 -6 6 -1 11 2 17 5 13 3 -3 4 -12 1 -19z m813 -13 c14 -37 3 -58 -28
-50 -22 5 -24 4 -13 -9 8 -9 11 -16 7 -16 -3 0 -9 0 -13 0 -5 0 -8 14 -8 30
-1 21 4 29 15 27 9 -1 16 7 18 21 4 29 10 28 22 -3z m-840 -68 c0 -8 -10 -22
-21 -33 -15 -13 -20 -14 -15 -4 3 8 9 23 12 33 7 20 24 23 24 4z m550 -8 c14
0 19 -3 13 -6 -20 -8 -15 -20 18 -44 l30 -21 15 21 c21 30 44 26 76 -11 29
-34 40 -19 13 16 -20 27 -19 42 1 25 15 -12 16 -11 10 11 -6 25 -6 25 5 3 7
-13 15 -23 19 -23 5 0 11 -12 15 -27 6 -25 8 -26 14 -9 4 11 7 -26 7 -81 -1
-77 -4 -99 -13 -91 -9 7 -14 0 -18 -24 -4 -19 -5 -40 -3 -47 2 -7 -3 -16 -11
-18 -10 -4 -12 2 -6 26 4 20 3 31 -5 31 -6 0 -8 5 -4 11 5 8 1 8 -14 0 -11 -6
-24 -20 -27 -31 -3 -11 -9 -20 -13 -20 -4 0 -25 -16 -46 -36 -27 -24 -42 -32
-49 -25 -7 7 -4 17 8 31 16 18 17 23 5 30 -11 7 -11 12 3 34 19 28 22 56 8 56
-5 0 -9 12 -9 28 1 58 -3 71 -22 77 -11 3 -20 14 -20 24 0 9 -4 21 -9 27 -16
15 -45 91 -30 77 7 -7 24 -13 39 -14z m100 13 c0 -5 -13 -7 -30 -4 -16 2 -30
6 -30 8 0 2 14 4 30 4 17 0 30 -4 30 -8z m193 -49 c4 -19 2 -33 -3 -33 -6 0
-10 -6 -10 -14 0 -8 -4 -18 -10 -21 -7 -4 -7 2 0 19 5 14 7 42 4 63 -5 45 11
33 19 -14z m-1396 -21 c-8 -2 -19 -14 -25 -27 -10 -21 -8 -25 9 -30 20 -7 48
16 49 39 0 5 3 6 7 3 3 -4 12 -2 20 4 9 9 13 8 13 0 0 -6 -5 -11 -11 -11 -5 0
-7 -5 -3 -12 4 -7 3 -8 -4 -4 -15 9 -15 7 -1 -32 9 -26 7 -34 -11 -52 -12 -12
-19 -25 -15 -28 4 -4 13 2 21 12 14 20 18 16 15 -16 -3 -26 18 -31 28 -6 9 23
9 23 20 -6 9 -23 9 -31 -1 -37 -7 -4 -9 -12 -4 -16 5 -4 11 -2 13 5 3 6 12 12
20 12 13 0 13 -3 3 -15 -7 -9 -11 -18 -8 -21 7 -6 58 17 58 27 0 11 26 18 39
10 20 -13 31 -79 15 -85 -16 -6 -19 -42 -3 -51 14 -9 -19 -45 -42 -45 -9 0
-19 -5 -21 -12 -9 -27 -28 7 -28 50 0 46 -1 47 -18 25 -26 -33 -58 -15 -67 37
-4 23 -16 51 -26 61 -10 10 -19 26 -19 34 0 8 -7 15 -15 15 -8 0 -15 5 -15 11
0 7 -7 17 -16 23 -25 18 -33 87 -17 129 13 32 17 35 34 24 14 -9 16 -13 6 -15z
m7 -29 c-5 -5 -12 -12 -16 -18 -4 -6 -8 -2 -8 8 0 9 7 17 17 17 9 0 12 -3 7
-7z m464 -85 c-2 -6 -10 -14 -16 -16 -7 -2 -10 2 -6 12 7 18 28 22 22 4z m-54
-4 c17 -7 22 -34 6 -34 -5 0 -14 9 -20 20 -12 22 -10 23 14 14z m647 -44 c5 0
9 5 9 11 0 5 5 7 10 4 18 -11 11 -33 -9 -28 -28 7 -54 39 -45 54 5 9 10 5 17
-14 5 -15 13 -27 18 -27z m-877 -5 c-4 -8 -8 -15 -10 -15 -2 0 -4 7 -4 15 0 8
4 15 10 15 5 0 7 -7 4 -15z m310 -21 c7 -17 -6 -18 -22 -2 -7 7 -12 15 -12 20
0 12 28 -2 34 -18z m626 16 c0 -5 -5 -10 -11 -10 -5 0 -7 5 -4 10 3 6 8 10 11
10 2 0 4 -4 4 -10z m-708 -35 c-11 -21 -25 -4 -16 20 4 10 10 13 16 7 7 -7 7
-16 0 -27z m638 15 c0 -5 -2 -10 -4 -10 -3 0 -8 5 -11 10 -3 6 -1 10 4 10 6 0
11 -4 11 -10z m63 -27 c-10 -15 -26 -36 -35 -45 -10 -10 -18 -22 -18 -28 0 -5
-4 -10 -10 -10 -20 0 -9 27 28 67 42 48 61 56 35 16z m-669 -8 c3 -8 1 -15 -4
-15 -6 0 -10 7 -10 15 0 8 2 15 4 15 2 0 6 -7 10 -15z m829 -107 c-2 -5 -10
-8 -17 -8 -9 0 -10 13 -1 58 l10 57 6 -50 c3 -27 4 -53 2 -57z m-168 52 c-3
-5 -11 -10 -16 -10 -6 0 -7 5 -4 10 3 6 11 10 16 10 6 0 7 -4 4 -10z m-805
-50 c0 -5 -2 -10 -4 -10 -3 0 -8 5 -11 10 -3 6 -1 10 4 10 6 0 11 -4 11 -10z
m110 -34 c0 -13 3 -33 6 -43 5 -12 4 -15 -3 -8 -14 14 -25 75 -13 75 6 0 10
-11 10 -24z m850 -8 c0 -16 -3 -19 -11 -11 -6 6 -8 16 -5 22 11 17 16 13 16
-11z m-890 -18 c-20 -13 -33 -13 -25 0 3 6 14 10 23 10 15 0 15 -2 2 -10z
m194 -32 c-9 -55 -26 -67 -37 -27 -6 24 -4 35 10 50 28 28 34 23 27 -23z m652
5 c-10 -10 -19 5 -10 18 6 11 8 11 12 0 2 -7 1 -15 -2 -18z m-1166 -183 c0 -5
6 -10 14 -10 7 0 24 -8 37 -18 13 -11 31 -20 39 -20 8 -1 33 -3 55 -5 27 -3
39 -8 37 -17 -2 -10 0 -11 10 -2 16 13 58 12 58 -1 0 -5 6 -5 13 1 7 6 22 11
32 10 11 0 32 2 46 6 18 5 31 3 42 -8 20 -20 27 -20 27 -1 0 11 12 15 50 15
43 0 50 -3 48 -17 -2 -15 5 -18 37 -20 125 -5 220 -15 232 -24 9 -9 17 -8 28
1 12 10 15 9 16 -6 1 -14 3 -13 9 6 6 22 8 23 15 7 5 -11 2 -24 -9 -36 -9 -10
-16 -28 -16 -40 0 -12 -7 -36 -16 -54 -18 -35 -166 -218 -207 -256 l-26 -23
-100 26 c-134 36 -155 45 -248 114 -44 33 -91 65 -104 72 -39 21 -178 161
-215 216 -43 65 -43 82 -1 87 64 8 97 7 97 -3z m2151 -176 c23 -63 22 -71 -8
-70 -27 1 -28 2 -25 54 4 54 16 60 33 16z m157 -110 c24 -7 31 -24 9 -24 -15
0 -57 29 -42 30 6 0 20 -3 33 -6z"/>
<path d="M2483 2427 c-84 -31 -59 -51 80 -66 67 -7 91 -13 102 -27 17 -24 8
-29 -62 -39 -28 -4 -91 -18 -140 -31 -48 -14 -95 -26 -103 -28 -8 -2 -15 -8
-14 -14 1 -7 2 -18 3 -25 1 -15 203 -39 209 -25 4 10 44 10 67 2 12 -5 13 -9
5 -14 -8 -5 -1 -10 19 -15 24 -5 37 -2 53 12 11 10 22 17 24 16 12 -7 64 12
64 23 0 18 9 18 32 -2 14 -14 18 -14 22 -3 7 22 17 81 21 122 3 34 1 37 -17
31 -14 -4 -24 1 -35 16 -20 28 -50 39 -130 46 -37 4 -81 13 -99 20 -39 16 -58
17 -101 1z m166 -151 c-2 -2 -24 -6 -49 -10 -31 -4 -40 -3 -30 4 13 9 89 15
79 6z m51 -82 c-12 -13 -53 -27 -45 -15 2 5 9 21 15 37 11 28 12 28 26 10 9
-13 11 -23 4 -32z"/>
<path d="M2415 2360 c-3 -5 3 -10 14 -10 11 0 23 5 26 10 3 6 -3 10 -14 10
-11 0 -23 -4 -26 -10z"/>
<path d="M2726 2141 c-6 -9 -40 -19 -101 -27 -47 -7 -54 -11 -31 -20 32 -12
121 6 151 31 28 23 29 24 8 25 -12 0 -24 -4 -27 -9z"/>
<path d="M3109 2076 c21 -25 65 -46 98 -46 28 0 73 24 73 38 0 4 -33 7 -72 7
-40 0 -82 4 -93 9 -18 9 -19 8 -6 -8z"/>
<path d="M2720 1870 c0 -5 5 -10 10 -10 6 0 10 5 10 10 0 6 -4 10 -10 10 -5 0
-10 -4 -10 -10z"/>
<path d="M2782 1740 c0 -14 2 -19 5 -12 2 6 2 18 0 25 -3 6 -5 1 -5 -13z"/>
<path d="M2760 1349 c0 -5 5 -7 10 -4 6 3 10 8 10 11 0 2 -4 4 -10 4 -5 0 -10
-5 -10 -11z"/>
<path d="M2826 1305 c4 -8 8 -15 10 -15 2 0 4 7 4 15 0 8 -4 15 -10 15 -5 0
-7 -7 -4 -15z"/>
<path d="M2905 1291 c-3 -5 -1 -12 5 -16 5 -3 10 1 10 9 0 18 -6 21 -15 7z"/>
<path d="M2486 1265 c-9 -26 -7 -32 5 -12 6 10 9 21 6 23 -2 3 -7 -2 -11 -11z"/>
<path d="M2521 1134 c0 -11 3 -14 6 -6 3 7 2 16 -1 19 -3 4 -6 -2 -5 -13z"/>
<path d="M2710 1105 c-10 -12 -10 -15 4 -15 9 0 16 7 16 15 0 8 -2 15 -4 15
-2 0 -9 -7 -16 -15z"/>
<path d="M2596 1025 c4 -8 8 -15 10 -15 2 0 4 7 4 15 0 8 -4 15 -10 15 -5 0
-7 -7 -4 -15z"/>
<path d="M2740 1030 c0 -5 5 -10 10 -10 6 0 10 5 10 10 0 6 -4 10 -10 10 -5 0
-10 -4 -10 -10z"/>
<path d="M1686 1952 c-3 -5 -1 -22 4 -38 8 -29 8 -29 9 9 1 36 -3 45 -13 29z"/>
<path d="M3047 1330 c14 -28 53 -60 53 -43 0 9 -55 73 -63 73 -3 0 1 -14 10
-30z"/>
<path d="M3140 1356 c0 -2 7 -7 16 -10 8 -3 12 -2 9 4 -6 10 -25 14 -25 6z"/>
<path d="M1960 1250 c0 -5 5 -10 10 -10 6 0 10 5 10 10 0 6 -4 10 -10 10 -5 0
-10 -4 -10 -10z"/>
<path d="M2142 1095 c-12 -13 -18 -27 -13 -29 7 -5 51 37 51 49 0 12 -18 3
-38 -20z"/>
<path d="M5811 2944 c0 -11 3 -14 6 -6 3 7 2 16 -1 19 -3 4 -6 -2 -5 -13z"/>
<path d="M0 895 l0 -895 47 0 46 0 -7 125 c-7 132 7 233 39 282 8 12 15 45 15
72 0 27 5 53 10 56 6 3 10 15 10 26 0 28 18 24 26 -6 3 -14 10 -25 15 -25 9 0
11 5 14 51 3 37 15 55 26 38 5 -8 8 6 7 36 -1 28 2 65 6 83 6 25 4 33 -9 38
-10 4 -13 13 -10 24 3 10 1 21 -5 25 -5 3 -10 14 -10 24 0 9 -5 22 -11 28 -6
6 -13 31 -15 55 -1 24 -10 60 -19 81 -9 21 -13 43 -9 49 4 6 3 8 -3 5 -6 -4
-17 36 -27 101 -10 59 -22 131 -27 161 -5 30 -9 109 -9 176 0 136 -15 206 -56
255 -14 16 -30 30 -35 30 -5 0 -9 -363 -9 -895z"/>
</g>
</svg>
